<svg xmlns="http://www.w3.org/2000/svg" viewBox="0 0 432.1 432.1"><title>1Asset 13</title><g id="Layer_2" data-name="Layer 2"><g id="Layer_6" data-name="Layer 6"><circle cx="216.05" cy="216.05" r="216.05" style="fill:#fcab75"/><path d="M79.27,288.2l1.43-1a9.6,9.6,0,0,1,3.84-1.6c1.65,0,3.43,1.5,5.35,4.48a9.29,9.29,0,0,1,1.76,4.47,3.88,3.88,0,0,1-1.08,2.79,12.61,12.61,0,0,1-2.52,2L85.29,301a28.93,28.93,0,0,1-5.38,2.07A26.34,26.34,0,0,1,72,304.33a30.43,30.43,0,0,1-7.67-1,32.21,32.21,0,0,1-8-3.35A32.84,32.84,0,0,1,49,294.23a26.41,26.41,0,0,1-5.39-8.71A30.87,30.87,0,0,1,41.49,274a29.51,29.51,0,0,1,2.08-11.31,25.72,25.72,0,0,1,5.31-8.38,30.4,30.4,0,0,1,7.39-5.55A32.23,32.23,0,0,1,72,244.44a26.34,26.34,0,0,1,7.63,1.16A26.86,26.86,0,0,1,85.5,248l1.91,1.12c1,.58,1.71,1.06,2.24,1.44a4.82,4.82,0,0,1,2.07,3.79,7.66,7.66,0,0,1-1.67,4.43C88,261.61,86.11,263,84.46,263a8.45,8.45,0,0,1-4.08-1.75q-3.34-2.71-8.94-2.72a17.41,17.41,0,0,0-10.22,3.6,13.33,13.33,0,0,0-4,4.95,17.11,17.11,0,0,0,0,14.45,13.71,13.71,0,0,0,4.07,5,17,17,0,0,0,10.14,3.52,16.84,16.84,0,0,0,4.67-.64A12.14,12.14,0,0,0,79.27,288.2Z" style="fill:#fffdfd;stroke:#fffdfd;stroke-miterlimit:10;stroke-width:4.025363650206791px"/><path d="M124.39,244.28A29.43,29.43,0,0,1,153.61,274a30.52,30.52,0,0,1-8.3,21.57,26.9,26.9,0,0,1-20.45,8.9,27.68,27.68,0,0,1-20.64-8.78,29,29,0,0,1-8.5-20.93,32.14,32.14,0,0,1,2.39-12.42,29,29,0,0,1,6.39-9.7,29.77,29.77,0,0,1,9.19-6.15A26.77,26.77,0,0,1,124.39,244.28Zm-14.54,30.1a15.31,15.31,0,0,0,4.59,11.54,14.17,14.17,0,0,0,20.49.12q4.55-4.31,4.55-11.58t-4.59-11.66a14.57,14.57,0,0,0-10.27-4.39,14.33,14.33,0,0,0-10.22,4.43A15.43,15.43,0,0,0,109.85,274.38Z" style="fill:#fffdfd;stroke:#fffdfd;stroke-miterlimit:10;stroke-width:4.025363650206791px"/><path d="M186.27,244.28A29.43,29.43,0,0,1,215.5,274a30.52,30.52,0,0,1-8.3,21.57,26.9,26.9,0,0,1-20.45,8.9,27.68,27.68,0,0,1-20.64-8.78,29.06,29.06,0,0,1-8.51-20.93,32.15,32.15,0,0,1,2.4-12.42,29,29,0,0,1,6.39-9.7,29.84,29.84,0,0,1,9.18-6.15A26.8,26.8,0,0,1,186.27,244.28Zm-14.53,30.1a15.31,15.31,0,0,0,4.59,11.54,14.17,14.17,0,0,0,20.49.12q4.55-4.31,4.55-11.58t-4.59-11.66a14.57,14.57,0,0,0-10.27-4.39,14.33,14.33,0,0,0-10.22,4.43A15.43,15.43,0,0,0,171.74,274.38Z" style="fill:#fffdfd;stroke:#fffdfd;stroke-miterlimit:10;stroke-width:4.025363650206791px"/><path d="M245.77,274.14Q258,285.89,263.1,291.79c1.75,2,2.64,3.64,2.64,5s-1.07,3-3.2,4.8-3.87,2.75-5.23,2.75-3-1.12-4.91-3.35l-17.57-20.05V296.5a23.13,23.13,0,0,1-.12,2.8,6.34,6.34,0,0,1-.76,2.08c-.75,1.43-2.82,2.15-6.23,2.15q-5.59,0-6.55-3a12.81,12.81,0,0,1-.48-4.07V252a20.73,20.73,0,0,1,.13-2.75,6.31,6.31,0,0,1,.75-2.12c.75-1.44,2.82-2.15,6.23-2.15q5.59,0,6.63,2.95a15.73,15.73,0,0,1,.4,4.15v15.26q10.86-12.23,17.57-20.05c1.86-2.18,3.49-3.27,4.87-3.27s3.14.92,5.27,2.75,3.2,3.44,3.2,4.79-.81,3-2.4,4.84q-4.63,5.34-14.38,14.69Z" style="fill:#fffdfd;stroke:#fffdfd;stroke-miterlimit:10;stroke-width:4.025363650206791px"/><path d="M271.72,252a23.09,23.09,0,0,1,.12-2.75,6.36,6.36,0,0,1,.76-2.12c.75-1.44,2.82-2.15,6.23-2.15q5.6,0,6.63,2.95a16.17,16.17,0,0,1,.4,4.15v44.4a23.13,23.13,0,0,1-.12,2.8,6.58,6.58,0,0,1-.76,2.08c-.75,1.43-2.82,2.15-6.23,2.15q-5.6,0-6.55-3a12.52,12.52,0,0,1-.48-4.07Z" style="fill:#fffdfd;stroke:#fffdfd;stroke-miterlimit:10;stroke-width:4.025363650206791px"/><path d="M306.38,289.4H331a23.09,23.09,0,0,1,2.75.12,6.36,6.36,0,0,1,2.12.76c1.44.74,2.16,2.82,2.16,6.22q0,5.6-3,6.55a13.35,13.35,0,0,1-4.15.48H299.27c-3.72,0-5.91-1-6.55-3a12.87,12.87,0,0,1-.47-4.07V252q0-4.07,1.51-5.55t5.75-1.47H331a23.09,23.09,0,0,1,2.75.12,6.54,6.54,0,0,1,2.12.75Q338,247,338,252.1q0,5.6-3,6.55a13.35,13.35,0,0,1-4.15.48H306.38v8.07h15.81a23.28,23.28,0,0,1,2.76.12,6.24,6.24,0,0,1,2.11.76c1.44.74,2.16,2.82,2.16,6.22q0,5.59-3,6.55a13.38,13.38,0,0,1-4.16.48H306.38Z" style="fill:#fffdfd;stroke:#fffdfd;stroke-miterlimit:10;stroke-width:4.025363650206791px"/><path d="M344.07,295.31a7.69,7.69,0,0,1-2.07-4.6q0-2,3.43-5.39a6.08,6.08,0,0,1,4.23-1.91q2.23,0,6.23,4a12.11,12.11,0,0,0,3.19,2.6,7.67,7.67,0,0,0,3.84,1.23q7.43,0,7.43-6.06a3.59,3.59,0,0,0-2-3.08,15.24,15.24,0,0,0-5.07-1.8,43.59,43.59,0,0,1-6.55-1.79,43,43,0,0,1-6.55-2.92,13.29,13.29,0,0,1-5.07-5.31,17.6,17.6,0,0,1-2-8.74,16.79,16.79,0,0,1,5.24-12.26q5.22-5.24,14.25-5.23a29.3,29.3,0,0,1,8.74,1.23,16.83,16.83,0,0,1,5.47,2.52l2,1.52c1.65,1.54,2.48,2.85,2.48,3.91s-.64,2.53-1.92,4.39q-2.71,4-5.59,4a8.14,8.14,0,0,1-4.15-1.6,9,9,0,0,1-.92-.8,13.68,13.68,0,0,0-1.24-1,8,8,0,0,0-4.27-1,7.21,7.21,0,0,0-4.31,1.24,4,4,0,0,0-1.72,3.44,4.11,4.11,0,0,0,2,3.55,12.53,12.53,0,0,0,5.08,1.84,60.8,60.8,0,0,1,6.62,1.47,41.29,41.29,0,0,1,6.63,2.44,11.68,11.68,0,0,1,5.07,5,17.31,17.31,0,0,1,2,8.74,19.32,19.32,0,0,1-2.08,9.15,15.79,15.79,0,0,1-5.43,6.11,24.77,24.77,0,0,1-13.81,4.23,27,27,0,0,1-7.11-.92,19.24,19.24,0,0,1-5.43-2.27,19.66,19.66,0,0,1-5.91-4.95Z" style="fill:#fffdfd;stroke:#fffdfd;stroke-miterlimit:10;stroke-width:4.025363650206791px"/><path d="M85.31,288.2l1.44-1a9.6,9.6,0,0,1,3.84-1.6c1.64,0,3.43,1.5,5.34,4.48a9.18,9.18,0,0,1,1.76,4.47,3.87,3.87,0,0,1-1.07,2.79,12.9,12.9,0,0,1-2.52,2L91.34,301A28.82,28.82,0,0,1,86,303.05a26.28,26.28,0,0,1-7.86,1.28,30.43,30.43,0,0,1-7.67-1,32.06,32.06,0,0,1-8-3.35,32.84,32.84,0,0,1-7.39-5.75,26.41,26.41,0,0,1-5.39-8.71A30.87,30.87,0,0,1,47.54,274a29.51,29.51,0,0,1,2.08-11.31,25.72,25.72,0,0,1,5.31-8.38,30.21,30.21,0,0,1,7.39-5.55,32.23,32.23,0,0,1,15.73-4.31,26.22,26.22,0,0,1,7.62,1.16A26.45,26.45,0,0,1,91.54,248l1.92,1.12c1,.58,1.7,1.06,2.24,1.44a4.82,4.82,0,0,1,2.07,3.79,7.61,7.61,0,0,1-1.68,4.43C94,261.61,92.15,263,90.51,263a8.45,8.45,0,0,1-4.08-1.75,13.78,13.78,0,0,0-8.94-2.72,17.41,17.41,0,0,0-10.22,3.6,13.45,13.45,0,0,0-4,4.95,17.11,17.11,0,0,0,0,14.45,13.83,13.83,0,0,0,4.08,5,16.65,16.65,0,0,0,14.81,2.88A12,12,0,0,0,85.31,288.2Z" style="fill:#232222"/><path d="M130.43,244.28A29.43,29.43,0,0,1,159.66,274a30.52,30.52,0,0,1-8.3,21.57,26.9,26.9,0,0,1-20.45,8.9,27.68,27.68,0,0,1-20.64-8.78,29.06,29.06,0,0,1-8.51-20.93,32.15,32.15,0,0,1,2.4-12.42,29,29,0,0,1,6.39-9.7,29.84,29.84,0,0,1,9.18-6.15A26.8,26.8,0,0,1,130.43,244.28Zm-14.53,30.1a15.31,15.31,0,0,0,4.59,11.54A14.17,14.17,0,0,0,141,286q4.54-4.31,4.55-11.58c0-4.84-1.54-8.73-4.59-11.66a14.57,14.57,0,0,0-10.27-4.39,14.33,14.33,0,0,0-10.22,4.43A15.43,15.43,0,0,0,115.9,274.38Z" style="fill:#232222"/><path d="M192.32,244.28A29.43,29.43,0,0,1,221.55,274a30.48,30.48,0,0,1-8.31,21.57,26.86,26.86,0,0,1-20.44,8.9,27.68,27.68,0,0,1-20.64-8.78,29.06,29.06,0,0,1-8.51-20.93,32.15,32.15,0,0,1,2.4-12.42,29,29,0,0,1,6.39-9.7,29.84,29.84,0,0,1,9.18-6.15A26.8,26.8,0,0,1,192.32,244.28Zm-14.53,30.1a15.31,15.31,0,0,0,4.59,11.54,14.16,14.16,0,0,0,20.48.12q4.56-4.31,4.55-11.58t-4.59-11.66a14.53,14.53,0,0,0-10.26-4.39,14.33,14.33,0,0,0-10.22,4.43A15.43,15.43,0,0,0,177.79,274.38Z" style="fill:#232222"/><path d="M251.82,274.14q12.21,11.75,17.33,17.65c1.75,2,2.63,3.64,2.63,5s-1.06,3-3.19,4.8-3.87,2.75-5.23,2.75-3-1.12-4.91-3.35l-17.57-20.05V296.5a23.13,23.13,0,0,1-.12,2.8,6.58,6.58,0,0,1-.76,2.08c-.75,1.43-2.82,2.15-6.23,2.15q-5.6,0-6.55-3a12.52,12.52,0,0,1-.48-4.07V252a23.09,23.09,0,0,1,.12-2.75,6.36,6.36,0,0,1,.76-2.12c.75-1.44,2.82-2.15,6.23-2.15q5.6,0,6.63,2.95a16.17,16.17,0,0,1,.4,4.15v15.26q10.86-12.23,17.57-20.05,2.79-3.27,4.87-3.27t5.27,2.75q3.2,2.76,3.19,4.79t-2.39,4.84q-4.63,5.34-14.38,14.69Z" style="fill:#232222"/><path d="M277.77,252a23.09,23.09,0,0,1,.12-2.75,6.36,6.36,0,0,1,.76-2.12c.74-1.44,2.82-2.15,6.23-2.15q5.58,0,6.63,2.95a16.27,16.27,0,0,1,.39,4.15v44.4a23.13,23.13,0,0,1-.12,2.8,6.53,6.53,0,0,1-.75,2.08q-1.12,2.14-6.23,2.15-5.6,0-6.55-3a12.52,12.52,0,0,1-.48-4.07Z" style="fill:#232222"/><path d="M312.43,289.4H337a23.09,23.09,0,0,1,2.75.12,6.36,6.36,0,0,1,2.12.76c1.44.74,2.15,2.82,2.15,6.22q0,5.6-2.95,6.55a13.35,13.35,0,0,1-4.15.48H305.32q-5.6,0-6.55-3a12.52,12.52,0,0,1-.48-4.07V252q0-4.07,1.52-5.55t5.75-1.47H337a23.09,23.09,0,0,1,2.75.12,6.54,6.54,0,0,1,2.12.75c1.44.75,2.15,2.83,2.15,6.23q0,5.6-2.95,6.55a13.35,13.35,0,0,1-4.15.48H312.43v8.07h15.81a23.4,23.4,0,0,1,2.76.12,6.32,6.32,0,0,1,2.11.76c1.44.74,2.16,2.82,2.16,6.22q0,5.59-3,6.55a13.3,13.3,0,0,1-4.15.48H312.43Z" style="fill:#232222"/><path d="M350.12,295.31a7.65,7.65,0,0,1-2.08-4.6q0-2,3.44-5.39a6.08,6.08,0,0,1,4.23-1.91q2.24,0,6.23,4a12.11,12.11,0,0,0,3.19,2.6,7.64,7.64,0,0,0,3.84,1.23q7.42,0,7.42-6.06a3.58,3.58,0,0,0-2-3.08,15.24,15.24,0,0,0-5.07-1.8,43.59,43.59,0,0,1-6.55-1.79,43,43,0,0,1-6.55-2.92,13.23,13.23,0,0,1-5.07-5.31,17.6,17.6,0,0,1-2-8.74,16.81,16.81,0,0,1,5.23-12.26q5.24-5.24,14.26-5.23a29.3,29.3,0,0,1,8.74,1.23,16.83,16.83,0,0,1,5.47,2.52l2,1.52c1.65,1.54,2.47,2.85,2.47,3.91s-.64,2.53-1.91,4.39q-2.71,4-5.59,4a8.11,8.11,0,0,1-4.15-1.6,9,9,0,0,1-.92-.8,15.21,15.21,0,0,0-1.24-1,8,8,0,0,0-4.27-1,7.26,7.26,0,0,0-4.32,1.24,4,4,0,0,0-1.71,3.44,4.11,4.11,0,0,0,2,3.55,12.54,12.54,0,0,0,5.07,1.84,60.43,60.43,0,0,1,6.63,1.47,41.29,41.29,0,0,1,6.63,2.44,11.73,11.73,0,0,1,5.07,5,17.31,17.31,0,0,1,2,8.74,19.32,19.32,0,0,1-2.08,9.15,15.79,15.79,0,0,1-5.43,6.11,24.79,24.79,0,0,1-13.81,4.23,26.84,26.84,0,0,1-7.11-.92,19.24,19.24,0,0,1-5.43-2.27,19.66,19.66,0,0,1-5.91-4.95Z" style="fill:#232222"/><path d="M103.45,149.26a6.4,6.4,0,0,1,.77,2.17,24.7,24.7,0,0,1,.12,2.82v44.66q0,5.57-3.06,6.52a13.09,13.09,0,0,1-3.86.49,13.4,13.4,0,0,1-3.7-.41,6.25,6.25,0,0,1-2.1-1,3.59,3.59,0,0,1-1.12-1.61,15.47,15.47,0,0,1-.41-4.19v-27q-2,2.51-5.87,7.93t-4.91,6.8l-1.45,1.89a7.72,7.72,0,0,1-2,1.45,6.52,6.52,0,0,1-3.38.93,6.59,6.59,0,0,1-3.3-.85,7.21,7.21,0,0,1-2.13-1.65l-.65-.88q-1.61-2-6.35-8.58t-5.16-7v27.12a23.55,23.55,0,0,1-.12,2.78,5.65,5.65,0,0,1-.76,2.05q-1.22,2.17-6.28,2.18-4.9,0-6.12-2.18a5.87,5.87,0,0,1-.76-2.09,25.58,25.58,0,0,1-.12-2.9V154.09a23.55,23.55,0,0,1,.12-2.78,6.56,6.56,0,0,1,.76-2.13c.81-1.4,2.9-2.09,6.28-2.09a11.81,11.81,0,0,1,3.74.52,4.92,4.92,0,0,1,2.06,1.08l.48.49,18.27,24q13.68-18.1,18.27-23.9,1.37-2.17,6.48-2.17T103.45,149.26Z" style="fill:#fffdfd;stroke:#fffdfd;stroke-miterlimit:10;stroke-width:4.025363650206791px"/><path d="M144.82,151.19l21.73,44.91a10.52,10.52,0,0,1,1.37,4.1c0,1.93-1.56,3.68-4.67,5.23a10.58,10.58,0,0,1-4.31,1.37,4.31,4.31,0,0,1-2.57-.72,4.91,4.91,0,0,1-1.45-1.53c-.3-.54-.71-1.34-1.25-2.42l-4.18-8.69h-22.3L123,202.13c-.54,1.08-1,1.85-1.25,2.34a5.72,5.72,0,0,1-1.45,1.49,4.19,4.19,0,0,1-2.57.76,10.62,10.62,0,0,1-4.31-1.37q-4.67-2.25-4.67-5.15a10.52,10.52,0,0,1,1.37-4.1l21.73-45a7.41,7.41,0,0,1,6.52-4.11A6.82,6.82,0,0,1,144.82,151.19ZM138.3,170.5l-5.31,11h10.7Z" style="fill:#fffdfd;stroke:#fffdfd;stroke-miterlimit:10;stroke-width:4.025363650206791px"/><path d="M179.51,146.92l14.89.08a29,29,0,0,1,20.52,8.41,27.44,27.44,0,0,1,8.85,20.69,28.87,28.87,0,0,1-8.65,21,28.37,28.37,0,0,1-21,8.78H179.43q-4.92,0-6.12-2a10.7,10.7,0,0,1-1-5.15V154a23.4,23.4,0,0,1,.12-2.82,6.68,6.68,0,0,1,.77-2.09Q174.36,146.93,179.51,146.92Zm25.35,40.45a14.12,14.12,0,0,0,4.67-10.83,14.52,14.52,0,0,0-4.55-10.9,14.85,14.85,0,0,0-10.67-4.39h-7.72v30.42h7.81A15,15,0,0,0,204.86,187.37Z" style="fill:#fffdfd;stroke:#fffdfd;stroke-miterlimit:10;stroke-width:4.025363650206791px"/><path d="M284.27,191.75h24.79a23.67,23.67,0,0,1,2.78.12,6.53,6.53,0,0,1,2.13.77q2.17,1.13,2.17,6.27,0,5.64-3,6.6A13.12,13.12,0,0,1,309,206H277.11q-5.64,0-6.6-3.06a12.76,12.76,0,0,1-.48-4.11V154.09c0-2.74.51-4.6,1.53-5.6s2.95-1.49,5.79-1.49h31.71a23.2,23.2,0,0,1,2.78.13,6.48,6.48,0,0,1,2.13.76q2.17,1.13,2.17,6.28,0,5.63-3,6.6a13.48,13.48,0,0,1-4.18.48H284.27v8.13h15.94a23.47,23.47,0,0,1,2.77.12,6.45,6.45,0,0,1,2.14.76c1.44.76,2.17,2.85,2.17,6.28q0,5.64-3.06,6.6a13.55,13.55,0,0,1-4.19.48H284.27ZM290,143.54a5.25,5.25,0,0,1-2.41.57q-2.42,0-3.94-4.75a10.78,10.78,0,0,1-.65-3.3,3.31,3.31,0,0,1,.57-2.09,5.22,5.22,0,0,1,2.89-1.69l13.28-4.11a18.78,18.78,0,0,1,2.42-.56q2.42,0,3.86,4.75a10.61,10.61,0,0,1,.64,3.26,3.25,3.25,0,0,1-.56,2,5.22,5.22,0,0,1-2.9,1.69Z" style="fill:#fffdfd;stroke:#fffdfd;stroke-miterlimit:10;stroke-width:4.025363650206791px"/><path d="M344.49,197.71a7.69,7.69,0,0,1-2.09-4.63q0-2.06,3.46-5.43a6.09,6.09,0,0,1,4.26-1.93c1.5,0,3.6,1.34,6.28,4a12.15,12.15,0,0,0,3.22,2.61,7.56,7.56,0,0,0,3.86,1.25q7.49,0,7.49-6.11a3.61,3.61,0,0,0-2.06-3.1,15,15,0,0,0-5.11-1.81,44.66,44.66,0,0,1-6.6-1.81,44.1,44.1,0,0,1-6.6-2.94,13.28,13.28,0,0,1-5.1-5.35,17.75,17.75,0,0,1-2.06-8.82,16.94,16.94,0,0,1,5.27-12.35Q354,146,363.08,146a29.39,29.39,0,0,1,8.81,1.25,16.79,16.79,0,0,1,5.51,2.53l2,1.53q2.49,2.34,2.49,3.94c0,1.08-.64,2.55-1.93,4.43q-2.73,4-5.63,4a8.19,8.19,0,0,1-4.19-1.61,7.84,7.84,0,0,1-.92-.8,13.67,13.67,0,0,0-1.25-1.05,8.16,8.16,0,0,0-4.31-1,7.17,7.17,0,0,0-4.34,1.25,4,4,0,0,0-1.73,3.46,4.14,4.14,0,0,0,2.05,3.58,12.68,12.68,0,0,0,5.11,1.85,59.72,59.72,0,0,1,6.68,1.49,42.27,42.27,0,0,1,6.68,2.45,11.81,11.81,0,0,1,5.11,5,17.48,17.48,0,0,1,2.05,8.81,19.62,19.62,0,0,1-2.09,9.22,16,16,0,0,1-5.47,6.16,25,25,0,0,1-13.93,4.26,27.33,27.33,0,0,1-7.16-.92,23,23,0,0,1-11.43-7.29Z" style="fill:#fffdfd;stroke:#fffdfd;stroke-miterlimit:10;stroke-width:4.025363650206791px"/><path d="M330.51,172.93a4.74,4.74,0,0,1-4.73-4.74V149.26a4.73,4.73,0,0,1,9.46,0v18.93A4.74,4.74,0,0,1,330.51,172.93Z" style="fill:#fffdfd;stroke:#fffdfd;stroke-miterlimit:10;stroke-width:4.025363650206791px"/><path d="M262.71,149.26a3.68,3.68,0,0,0-2.14-1.73A14.89,14.89,0,0,0,256,147c-.24,0-.45,0-.67.05H232.77c-3.38,0-6.12,3.18-6.12,7.1s2.74,7.1,6.12,7.1h16.58v23.58a7.62,7.62,0,0,1-2,5.55,6.76,6.76,0,0,1-5.11,2.1,8,8,0,0,1-5.75-2.66q-2.66-2.65-4.83-2.66t-5,2.9q-2.82,2.9-2.82,5c0,1.42.94,3.13,2.82,5.11l.64.65a20.25,20.25,0,0,0,5.16,3.62,18.74,18.74,0,0,0,9.41,2.33,20.55,20.55,0,0,0,15.62-6.48,21.13,21.13,0,0,0,6.11-14.93V154.25A11.72,11.72,0,0,0,262.71,149.26Z" style="fill:#fffdfd;stroke:#fffdfd;stroke-miterlimit:10;stroke-width:4.025363650206791px"/><path d="M109.5,149.26a6.36,6.36,0,0,1,.76,2.17,22.16,22.16,0,0,1,.13,2.82v44.66q0,5.57-3.06,6.52a13.12,13.12,0,0,1-3.87.49,13.49,13.49,0,0,1-3.7-.41,6.28,6.28,0,0,1-2.09-1,3.68,3.68,0,0,1-1.13-1.61,16,16,0,0,1-.4-4.19v-27q-2,2.51-5.88,7.93c-2.57,3.62-4.21,5.89-4.9,6.8l-1.45,1.89a7.92,7.92,0,0,1-2,1.45,6.72,6.72,0,0,1-6.68.08,7.27,7.27,0,0,1-2.14-1.65l-.64-.88c-1.08-1.34-3.19-4.2-6.36-8.58s-4.88-6.72-5.15-7v27.12a23.55,23.55,0,0,1-.12,2.78,5.65,5.65,0,0,1-.76,2.05q-1.22,2.17-6.28,2.18-4.91,0-6.12-2.18a5.68,5.68,0,0,1-.76-2.09,25.58,25.58,0,0,1-.12-2.9V154.09a23.55,23.55,0,0,1,.12-2.78,6.33,6.33,0,0,1,.76-2.13c.81-1.4,2.9-2.09,6.28-2.09a11.85,11.85,0,0,1,3.74.52,4.86,4.86,0,0,1,2,1.08l.49.49,18.27,24q13.68-18.1,18.26-23.9,1.38-2.17,6.48-2.17T109.5,149.26Z" style="fill:#232222"/><path d="M150.87,151.19,172.6,196.1a10.52,10.52,0,0,1,1.37,4.1c0,1.93-1.56,3.68-4.67,5.23A10.62,10.62,0,0,1,165,206.8a4.31,4.31,0,0,1-2.57-.72,4.91,4.91,0,0,1-1.45-1.53c-.3-.54-.72-1.34-1.25-2.42l-4.19-8.69H133.24l-4.18,8.69c-.54,1.08-.95,1.85-1.25,2.34a5.89,5.89,0,0,1-1.45,1.49,4.19,4.19,0,0,1-2.57.76,10.58,10.58,0,0,1-4.31-1.37q-4.67-2.25-4.67-5.15a10.52,10.52,0,0,1,1.37-4.1l21.73-45a7.41,7.41,0,0,1,6.52-4.11A6.82,6.82,0,0,1,150.87,151.19Zm-6.52,19.31-5.31,11h10.7Z" style="fill:#232222"/><path d="M185.55,146.92l14.9.08A29,29,0,0,1,221,155.41a27.44,27.44,0,0,1,8.85,20.69,28.91,28.91,0,0,1-8.65,21,28.37,28.37,0,0,1-21,8.78H185.47q-4.91,0-6.11-2a10.58,10.58,0,0,1-1-5.15V154a23.4,23.4,0,0,1,.12-2.82,6.44,6.44,0,0,1,.77-2.09Q180.41,146.93,185.55,146.92Zm25.36,40.45a14.11,14.11,0,0,0,4.66-10.83,14.51,14.51,0,0,0-4.54-10.9,14.87,14.87,0,0,0-10.67-4.39h-7.72v30.42h7.81A15.06,15.06,0,0,0,210.91,187.37Z" style="fill:#232222"/><path d="M290.32,191.75h24.79a23.36,23.36,0,0,1,2.77.12,6.49,6.49,0,0,1,2.14.77q2.18,1.13,2.17,6.27,0,5.64-3,6.6A13.12,13.12,0,0,1,315,206H283.16q-5.64,0-6.6-3.06a12.76,12.76,0,0,1-.48-4.11V154.09c0-2.74.5-4.6,1.52-5.6s3-1.49,5.8-1.49h31.71a22.89,22.89,0,0,1,2.77.13,6.45,6.45,0,0,1,2.14.76q2.18,1.13,2.17,6.28,0,5.63-3,6.6a13.48,13.48,0,0,1-4.18.48H290.32v8.13h15.94a23.47,23.47,0,0,1,2.77.12,6.33,6.33,0,0,1,2.13.76q2.18,1.14,2.18,6.28,0,5.64-3.06,6.6a13.55,13.55,0,0,1-4.19.48H290.32ZM296,143.54a5.25,5.25,0,0,1-2.41.57q-2.42,0-3.94-4.75a10.78,10.78,0,0,1-.65-3.3,3.31,3.31,0,0,1,.57-2.09,5.18,5.18,0,0,1,2.89-1.69l13.28-4.11a18.78,18.78,0,0,1,2.42-.56c1.61,0,2.89,1.58,3.86,4.75a10.61,10.61,0,0,1,.64,3.26,3.25,3.25,0,0,1-.56,2,5.22,5.22,0,0,1-2.9,1.69Z" style="fill:#232222"/><path d="M350.54,197.71a7.71,7.71,0,0,1-2.1-4.63c0-1.37,1.16-3.18,3.46-5.43a6.11,6.11,0,0,1,4.27-1.93q2.25,0,6.28,4a12.15,12.15,0,0,0,3.22,2.61,7.56,7.56,0,0,0,3.86,1.25q7.49,0,7.49-6.11a3.61,3.61,0,0,0-2.06-3.1,15,15,0,0,0-5.11-1.81,44.66,44.66,0,0,1-6.6-1.81,44.1,44.1,0,0,1-6.6-2.94,13.36,13.36,0,0,1-5.11-5.35,17.86,17.86,0,0,1-2.05-8.82,16.94,16.94,0,0,1,5.27-12.35Q360,146,369.13,146a29.44,29.44,0,0,1,8.81,1.25,16.79,16.79,0,0,1,5.51,2.53l2,1.53q2.51,2.34,2.5,3.94c0,1.08-.64,2.55-1.93,4.43q-2.75,4-5.63,4a8.19,8.19,0,0,1-4.19-1.61,8.54,8.54,0,0,1-.93-.8,12.44,12.44,0,0,0-1.24-1.05,8.16,8.16,0,0,0-4.31-1,7.22,7.22,0,0,0-4.35,1.25,4,4,0,0,0-1.72,3.46,4.14,4.14,0,0,0,2,3.58,12.68,12.68,0,0,0,5.11,1.85,60.22,60.22,0,0,1,6.68,1.49,42.27,42.27,0,0,1,6.68,2.45,11.81,11.81,0,0,1,5.11,5,17.48,17.48,0,0,1,2,8.81,19.62,19.62,0,0,1-2.09,9.22,16,16,0,0,1-5.47,6.16,25,25,0,0,1-13.93,4.26,27.28,27.28,0,0,1-7.16-.92,23,23,0,0,1-11.43-7.29Z" style="fill:#232222"/><path d="M336.56,172.93a4.74,4.74,0,0,1-4.74-4.74V149.26a4.74,4.74,0,0,1,9.47,0v18.93A4.74,4.74,0,0,1,336.56,172.93Z" style="fill:#232222"/><path d="M268.76,149.26a3.72,3.72,0,0,0-2.14-1.73A14.89,14.89,0,0,0,262,147c-.24,0-.45,0-.68.05h-22.5c-3.38,0-6.12,3.18-6.12,7.1s2.74,7.1,6.12,7.1H255.4v23.58a7.66,7.66,0,0,1-2,5.55,6.76,6.76,0,0,1-5.11,2.1,8,8,0,0,1-5.75-2.66q-2.66-2.65-4.83-2.66t-5,2.9q-2.82,2.9-2.82,5c0,1.42.94,3.13,2.82,5.11l.64.65a20.15,20.15,0,0,0,5.15,3.62,18.8,18.8,0,0,0,9.42,2.33,20.53,20.53,0,0,0,15.61-6.48,21.09,21.09,0,0,0,6.12-14.93V154.25A11.87,11.87,0,0,0,268.76,149.26Z" style="fill:#232222"/></g></g></svg>