<svg class="logo" xmlns="http://www.w3.org/2000/svg" viewBox="0 0 381.47 107.87"><title>1Asset 6</title><g id="Layer_2" data-name="Layer 2"><g id="Layer_6" data-name="Layer 6"><path d="M211.41,102l.48-.35a3.19,3.19,0,0,1,1.27-.53c.54,0,1.13.5,1.76,1.48a3.09,3.09,0,0,1,.59,1.48,1.29,1.29,0,0,1-.36.93,5,5,0,0,1-.83.66l-.91.55a9.21,9.21,0,0,1-1.79.69,8.66,8.66,0,0,1-2.6.42,10.1,10.1,0,0,1-2.53-.33,10.51,10.51,0,0,1-2.64-1.11,11,11,0,0,1-2.45-1.9,8.87,8.87,0,0,1-1.78-2.88,10.12,10.12,0,0,1-.7-3.81,9.73,9.73,0,0,1,.69-3.74,8.59,8.59,0,0,1,1.75-2.77A10.09,10.09,0,0,1,203.81,89a10.69,10.69,0,0,1,5.2-1.43,8.58,8.58,0,0,1,2.52.39,8.38,8.38,0,0,1,1.94.78l.64.37.74.47a1.62,1.62,0,0,1,.68,1.26,2.51,2.51,0,0,1-.55,1.46c-.69,1-1.31,1.43-1.85,1.43a2.85,2.85,0,0,1-1.35-.58,4.55,4.55,0,0,0-3-.9,5.73,5.73,0,0,0-3.38,1.19A4.55,4.55,0,0,0,204.12,95a5.34,5.34,0,0,0-.52,2.39,5.28,5.28,0,0,0,.52,2.39,4.63,4.63,0,0,0,1.35,1.67,5.67,5.67,0,0,0,3.35,1.16,5.58,5.58,0,0,0,1.55-.21A4.05,4.05,0,0,0,211.41,102Z" style="fill:#232222"/><path d="M226.33,87.49A9.75,9.75,0,0,1,236,97.33a10.08,10.08,0,0,1-2.75,7.13,8.88,8.88,0,0,1-6.76,2.94,9.18,9.18,0,0,1-6.83-2.9,9.62,9.62,0,0,1-2.81-6.92,10.82,10.82,0,0,1,.79-4.11,9.71,9.71,0,0,1,2.12-3.21,9.89,9.89,0,0,1,3-2A9,9,0,0,1,226.33,87.49Zm-4.81,10a5.06,5.06,0,0,0,1.52,3.81,4.69,4.69,0,0,0,6.78,0,5.64,5.64,0,0,0,0-7.68,4.78,4.78,0,0,0-3.39-1.45A4.71,4.71,0,0,0,223,93.63,5.11,5.11,0,0,0,221.52,97.45Z" style="fill:#232222"/><path d="M246.8,87.49a9.75,9.75,0,0,1,9.66,9.84,10,10,0,0,1-2.75,7.13A8.88,8.88,0,0,1,247,107.4a9.15,9.15,0,0,1-6.82-2.9,9.58,9.58,0,0,1-2.81-6.92,10.63,10.63,0,0,1,.79-4.11,9.69,9.69,0,0,1,2.11-3.21,9.82,9.82,0,0,1,3-2A8.88,8.88,0,0,1,246.8,87.49Zm-4.81,10a5.06,5.06,0,0,0,1.52,3.81,4.68,4.68,0,0,0,6.77,0,5,5,0,0,0,1.51-3.83,5.09,5.09,0,0,0-1.52-3.85,4.78,4.78,0,0,0-3.39-1.45,4.69,4.69,0,0,0-3.38,1.46A5.08,5.08,0,0,0,242,97.45Z" style="fill:#232222"/><path d="M266.47,97.37q4,3.88,5.73,5.83a2.81,2.81,0,0,1,.87,1.65q0,.68-1.05,1.59a3,3,0,0,1-1.73.91c-.45,0-1-.37-1.63-1.11l-5.81-6.63v5.15a7.11,7.11,0,0,1,0,.93,2,2,0,0,1-.25.68c-.25.48-.93.72-2.06.72s-1.95-.34-2.16-1a4,4,0,0,1-.16-1.34V90.05a7,7,0,0,1,0-.91,2.05,2.05,0,0,1,.25-.7c.25-.47.93-.71,2.06-.71s2,.33,2.19,1a5.14,5.14,0,0,1,.13,1.37v5q3.6-4,5.81-6.62c.62-.73,1.15-1.09,1.61-1.09a3.08,3.08,0,0,1,1.75.91q1.05.92,1.05,1.59a2.66,2.66,0,0,1-.79,1.6c-1,1.18-2.61,2.79-4.75,4.85Z" style="fill:#232222"/><path d="M275.05,90.05a7,7,0,0,1,0-.91,2.29,2.29,0,0,1,.25-.7c.25-.47.93-.71,2.06-.71s2,.33,2.19,1a5.06,5.06,0,0,1,.14,1.37v14.68c0,.42,0,.73,0,.93a2,2,0,0,1-.26.68c-.24.48-.93.72-2.05.72s-2-.34-2.17-1a4,4,0,0,1-.16-1.34Z" style="fill:#232222"/><path d="M286.51,102.41h8.14c.4,0,.7,0,.91,0a2.29,2.29,0,0,1,.7.25c.47.25.71.94.71,2.06s-.33,2-1,2.17a4.55,4.55,0,0,1-1.37.16H284.16c-1.23,0-2-.34-2.16-1a4,4,0,0,1-.16-1.34V90.05a2.57,2.57,0,0,1,.5-1.83,2.73,2.73,0,0,1,1.9-.49h10.41a7.05,7.05,0,0,1,.91,0,2.29,2.29,0,0,1,.7.25c.47.25.71.93.71,2.06s-.33,2-1,2.17a4.61,4.61,0,0,1-1.37.15h-8.11v2.67h5.23a7,7,0,0,1,.91,0,2.2,2.2,0,0,1,.7.25c.48.25.71.93.71,2.06s-.33,2-1,2.17a4.66,4.66,0,0,1-1.37.15h-5.18Z" style="fill:#232222"/><path d="M299,104.37a2.54,2.54,0,0,1-.69-1.52c0-.45.38-1,1.13-1.79a2,2,0,0,1,1.4-.63c.5,0,1.18.44,2.06,1.32a4,4,0,0,0,1.06.86,2.55,2.55,0,0,0,1.27.41c1.63,0,2.45-.67,2.45-2a1.17,1.17,0,0,0-.67-1,4.74,4.74,0,0,0-1.68-.6,14.11,14.11,0,0,1-2.16-.59,14.84,14.84,0,0,1-2.17-1,4.29,4.29,0,0,1-1.67-1.75,5.83,5.83,0,0,1-.68-2.89,5.59,5.59,0,0,1,1.73-4.06,6.39,6.39,0,0,1,4.72-1.73,9.75,9.75,0,0,1,2.89.41,5.83,5.83,0,0,1,1.81.83l.66.51a2.06,2.06,0,0,1,.81,1.29,2.91,2.91,0,0,1-.63,1.45c-.6.88-1.21,1.32-1.85,1.32a2.62,2.62,0,0,1-1.37-.53,2,2,0,0,1-.3-.26,3.48,3.48,0,0,0-.41-.34,2.64,2.64,0,0,0-1.42-.35,2.38,2.38,0,0,0-1.42.41,1.33,1.33,0,0,0-.57,1.14,1.35,1.35,0,0,0,.67,1.17,4.23,4.23,0,0,0,1.68.61,20.66,20.66,0,0,1,2.19.49,14.43,14.43,0,0,1,2.19.8A3.91,3.91,0,0,1,311.69,98a5.76,5.76,0,0,1,.67,2.9,6.49,6.49,0,0,1-.68,3,5.22,5.22,0,0,1-1.8,2,8.23,8.23,0,0,1-4.57,1.4,9,9,0,0,1-2.35-.3,7.72,7.72,0,0,1-3.75-2.39Z" style="fill:#232222"/><path d="M95.35,88.84a2.35,2.35,0,0,1,.26.72q0,.31,0,.93v14.77c0,1.23-.33,1.94-1,2.16a4.47,4.47,0,0,1-1.27.16,4.42,4.42,0,0,1-1.23-.14,2,2,0,0,1-.69-.31,1.27,1.27,0,0,1-.37-.54,5.14,5.14,0,0,1-.14-1.38V96.29c-.44.55-1.09,1.43-1.94,2.63s-1.39,1.94-1.62,2.24l-.48.63a3,3,0,0,1-.65.48,2.21,2.21,0,0,1-1.12.3,2.13,2.13,0,0,1-1.09-.28,2.42,2.42,0,0,1-.71-.54l-.21-.29c-.35-.45-1-1.39-2.1-2.84l-1.7-2.33v9c0,.41,0,.72,0,.92a2.08,2.08,0,0,1-.26.68c-.26.48-1,.72-2.07.72s-1.76-.24-2-.72a2,2,0,0,1-.25-.69c0-.22,0-.54,0-1V90.44c0-.41,0-.71,0-.92a2.2,2.2,0,0,1,.25-.7c.27-.47,1-.7,2.08-.7a3.82,3.82,0,0,1,1.24.18,1.54,1.54,0,0,1,.68.36l.16.16,6,7.93q4.52-6,6-7.91c.3-.48,1-.72,2.14-.72S95.1,88.36,95.35,88.84Z" style="fill:#232222"/><path d="M109,89.48l7.19,14.85a3.49,3.49,0,0,1,.45,1.36c0,.64-.52,1.21-1.54,1.73a3.54,3.54,0,0,1-1.43.45,1.42,1.42,0,0,1-.85-.24,1.72,1.72,0,0,1-.48-.5c-.1-.18-.23-.45-.41-.8l-1.39-2.88H103.2l-1.38,2.88c-.18.35-.32.61-.41.77a2,2,0,0,1-.48.49,1.36,1.36,0,0,1-.85.25,3.54,3.54,0,0,1-1.43-.45c-1-.5-1.54-1.06-1.54-1.7a3.49,3.49,0,0,1,.45-1.36l7.19-14.88a2.44,2.44,0,0,1,2.15-1.35A2.25,2.25,0,0,1,109,89.48Zm-2.15,6.39-1.76,3.64h3.54Z" style="fill:#232222"/><path d="M120.5,88.07l4.93,0a9.52,9.52,0,0,1,6.78,2.78,9.06,9.06,0,0,1,2.93,6.84,9.61,9.61,0,0,1-2.86,7,9.4,9.4,0,0,1-6.94,2.9h-4.87c-1.08,0-1.75-.22-2-.67a3.56,3.56,0,0,1-.32-1.7V90.41c0-.42,0-.73,0-.93a2.14,2.14,0,0,1,.26-.69C118.67,88.31,119.37,88.07,120.5,88.07Zm8.38,13.37a4.66,4.66,0,0,0,1.55-3.58,4.77,4.77,0,0,0-1.51-3.6,4.88,4.88,0,0,0-3.52-1.45h-2.56v10.06h2.59A5,5,0,0,0,128.88,101.44Z" style="fill:#232222"/><path d="M155.14,102.89h8.2c.41,0,.72,0,.92,0a2,2,0,0,1,.7.26c.48.24.72.94.72,2.07s-.33,2-1,2.18a4.38,4.38,0,0,1-1.39.16H152.78c-1.25,0-2-.33-2.19-1a4.31,4.31,0,0,1-.16-1.35V90.44a2.56,2.56,0,0,1,.51-1.85,2.79,2.79,0,0,1,1.92-.49h10.48a7,7,0,0,1,.92,0,2,2,0,0,1,.7.25c.48.25.72.94.72,2.08s-.33,2-1,2.18a4.7,4.7,0,0,1-1.39.16h-8.17V95.5h5.27a7,7,0,0,1,.92,0,2,2,0,0,1,.71.25q.72.38.72,2.07c0,1.25-.34,2-1,2.19a4.62,4.62,0,0,1-1.38.16h-5.22ZM157,87a1.67,1.67,0,0,1-.79.19c-.54,0-1-.52-1.31-1.57a3.62,3.62,0,0,1-.21-1.09,1.13,1.13,0,0,1,.18-.69,1.73,1.73,0,0,1,1-.56l4.39-1.36a7.93,7.93,0,0,1,.8-.19c.53,0,1,.53,1.28,1.57a3.62,3.62,0,0,1,.21,1.08,1.12,1.12,0,0,1-.18.68,1.73,1.73,0,0,1-1,.56Z" style="fill:#232222"/><path d="M175.06,104.86a2.48,2.48,0,0,1-.7-1.53c0-.45.38-1,1.15-1.79a2,2,0,0,1,1.41-.64c.5,0,1.19.44,2.07,1.33a4.06,4.06,0,0,0,1.07.86,2.51,2.51,0,0,0,1.28.42c1.65,0,2.47-.68,2.47-2a1.2,1.2,0,0,0-.68-1,4.73,4.73,0,0,0-1.69-.6,13.62,13.62,0,0,1-2.18-.6,14,14,0,0,1-2.18-1,4.32,4.32,0,0,1-1.69-1.77,5.91,5.91,0,0,1-.68-2.91,5.59,5.59,0,0,1,1.74-4.09,6.44,6.44,0,0,1,4.75-1.74,9.91,9.91,0,0,1,2.92.41,5.55,5.55,0,0,1,1.82.84l.67.5a2.08,2.08,0,0,1,.82,1.31,2.91,2.91,0,0,1-.64,1.46c-.6.89-1.22,1.33-1.86,1.33a2.7,2.7,0,0,1-1.39-.53,3.38,3.38,0,0,1-.3-.27,4.86,4.86,0,0,0-.41-.34,2.7,2.7,0,0,0-1.43-.35,2.42,2.42,0,0,0-1.43.41,1.33,1.33,0,0,0-.58,1.15,1.37,1.37,0,0,0,.68,1.18,4.14,4.14,0,0,0,1.69.62A18.71,18.71,0,0,1,184,96a13.34,13.34,0,0,1,2.21.81,3.9,3.9,0,0,1,1.69,1.66,5.81,5.81,0,0,1,.68,2.92,6.43,6.43,0,0,1-.69,3,5.3,5.3,0,0,1-1.81,2,8.27,8.27,0,0,1-4.61,1.41,8.75,8.75,0,0,1-2.37-.31,6.53,6.53,0,0,1-1.81-.75,6.45,6.45,0,0,1-2-1.65Z" style="fill:#232222"/><path d="M170.43,96.67a1.56,1.56,0,0,1-1.56-1.57V88.84a1.57,1.57,0,0,1,3.13,0V95.1A1.57,1.57,0,0,1,170.43,96.67Z" style="fill:#232222"/><path d="M148,88.84a1.23,1.23,0,0,0-.7-.57,4.86,4.86,0,0,0-1.53-.17h-7.67a2.38,2.38,0,0,0,0,4.7h5.49v7.79a2.55,2.55,0,0,1-.67,1.84,2.25,2.25,0,0,1-1.69.69,2.63,2.63,0,0,1-1.9-.88,2.45,2.45,0,0,0-1.6-.87,2.56,2.56,0,0,0-1.65,1,2.66,2.66,0,0,0-.93,1.67,2.75,2.75,0,0,0,.93,1.69l.21.21a6.67,6.67,0,0,0,1.71,1.2,6.21,6.21,0,0,0,3.11.77,6.78,6.78,0,0,0,5.16-2.14,7,7,0,0,0,2-4.94V90.49A3.8,3.8,0,0,0,148,88.84Z" style="fill:#232222"/><path d="M1.91,37.25C10,52.39,21.42,61,35.1,51.66c23.17-15.8,30.16-46.08,39.48-47C91.19,3,88.48,49.7,88.09,55.42,89,16.29,104.85,2.68,114.64,3.14c10.71.51,13,35,13,50.88h0c.93-37.26,9.78-49.59,18.63-49.95C158,3.61,165.88,44.71,165.88,55h0c-.94-38.19,7-50.41,14-50.88C190.55,3.36,192,24.21,192,55l-.3-.75h0c.94-39.13,16.77-52.74,26.56-52.28,10.71.51,13,35,13,50.88h0c.93-37.26,9.77-49.59,18.63-49.95,11.65-.46,19.56,40.64,19.56,50.89h0c-.93-38.2,7-50.42,14-50.89,10.7-.71,12.11,20.14,12.11,50.89h0c-.72-16.41,2.18-48.5,15.84-51.24C332.31-1.71,329.31,66.79,359,56.61c8.9-3,15.87-11.88,20.56-22.5" style="fill:none;stroke:#fffdfd;stroke-linecap:round;stroke-linejoin:round;stroke-width:3.82255375385284px"/></g></g></svg>