<svg id="Layer_1" data-name="Layer 1" xmlns="http://www.w3.org/2000/svg" viewBox="0 0 253.7 152.54"><defs><style>.cls-1{fill:#2D2C2D;}</style></defs><title>Logo_charcoal_1</title><polygon class="cls-1" points="64.84 58.08 69.53 47.99 79.14 47.99 79.14 72.55 71.26 72.55 71.44 58.12 71.37 58.12 65.09 70.57 64.46 70.57 58.18 58.12 58.11 58.12 58.28 72.55 50.41 72.55 50.41 47.99 60.02 47.99 64.77 58.08 64.84 58.08"/><path class="cls-1" d="M98.12,69.43h-6.7l-.79,3.12H81.05L89.9,48h9.92l8.67,24.56H98.92Zm-1.56-5.9L95.9,61a42.38,42.38,0,0,1-1.08-6h-.17a41,41,0,0,1-1.08,6l-.65,2.57Z"/><path class="cls-1" d="M110.4,48h9c8.74,0,14,4.82,14,12.24S128,72.55,119.36,72.55h-9Zm8.82,17.45c3.92,0,5.93-1.53,5.93-5.21s-2.05-5.13-5.83-5.13h-.87V65.44Z"/><path class="cls-1" d="M140.56,65.92c.83,0,1.32-.52,1.32-2.67V48h8.05V63.32c0,6.63-3.09,9.93-8.85,9.93-4.51,0-8.09-2.71-9.06-6.25l6.56-2.5.66.21c.21.76.62,1.21,1.32,1.21"/><path class="cls-1" d="M170.05,48l.73,6.73H162V57h7.59v6.35H162v2.5h8.81l-.73,6.73H153.92V48Zm-9.23-6.6h6.52l.21.35L162.87,46h-5.59Z"/><polygon class="cls-1" points="172.34 58.74 176.13 47.64 176.61 47.33 182.89 49.69 177.3 60.58 172.34 58.74"/><path class="cls-1" d="M183.41,68.18l5.45-3.85.66.17a5,5,0,0,0,3.95,2c1.15,0,1.84-.35,1.84-.94s-.59-1.07-4.61-2.77c-4.41-1.84-6.07-4-6.07-7.84,0-4.31,4.19-7.6,9.61-7.6A11.62,11.62,0,0,1,204,52.08l-5.45,4.09-.65-.13a4.48,4.48,0,0,0-3.51-1.95c-1,0-1.42.35-1.42.87s.21.76,4.61,2.6,6.11,4.06,6.11,7.11c0,5-4.23,8.57-10.13,8.57a12.08,12.08,0,0,1-10.1-5.06"/><path class="cls-1" d="M49.61,97.83c0-7.88,5.93-13,13.19-13,4.51,0,8.67,1.94,10.93,5.93L67.45,94.5l-.66-.11a4.12,4.12,0,0,0-3.65-1.91c-2.49,0-4.65,2-4.65,5.35s2.12,5.3,4.79,5.3a4,4,0,0,0,3.51-1.9l.66-.11,6.28,3.71c-2.26,4-6.46,5.94-11,5.94-7.32,0-13.15-5.21-13.15-12.94"/><path class="cls-1" d="M136.88,102l-2.43,2.81v5.31h-8V85.54h8v3.33c0,1.84-.24,4.93-.45,6.77h.07a29.12,29.12,0,0,1,3-4.54l4.37-5.56h9.68l-8.78,10.14,8.92,14.43h-9.61Z"/><rect class="cls-1" x="153.02" y="85.54" width="8.05" height="24.57"/><polygon class="cls-1" points="181.37 85.54 182.09 92.28 173.28 92.28 173.28 94.53 180.88 94.53 180.88 100.88 173.28 100.88 173.28 103.38 182.09 103.38 181.37 110.11 165.23 110.11 165.23 85.54 181.37 85.54"/><path class="cls-1" d="M183.55,105.74l5.45-3.85.66.17a5,5,0,0,0,4,2c1.15,0,1.84-.35,1.84-.94s-.59-1.08-4.61-2.78c-4.41-1.83-6.07-4-6.07-7.84,0-4.3,4.2-7.6,9.61-7.6a11.63,11.63,0,0,1,9.71,4.76l-5.44,4.09-.66-.14a4.46,4.46,0,0,0-3.51-1.94c-1,0-1.42.35-1.42.87s.21.76,4.61,2.6,6.11,4.06,6.11,7.11c0,5-4.23,8.57-10.13,8.57a12.1,12.1,0,0,1-10.1-5.06"/><path class="cls-1" d="M75.79,90.73s2.33-3.27,4.19-4.11,1.92-1.28,4.49-1.28,4.08-.06,5.48-.06a11.2,11.2,0,0,1,5.42,2.06A14.38,14.38,0,0,1,99,91.64a6.49,6.49,0,0,1,.24.83c0,.21-.94,3.6-.8,4.83s1,5.2,1,5.69a3,3,0,0,1-.83,1.84A29,29,0,0,1,93,109.74c-1.81,1.15-8,1.63-10.14,1s-4.25-4.16-7-6.19c-1.07-.78-4.24-8,0-13.85"/><path class="cls-1" d="M101.27,90.85s2.27-3.27,4.08-4.12,2.44-1.67,4.93-1.67,3.39.34,4.75.34a10.67,10.67,0,0,1,5.27,2.06,14,14,0,0,1,3.51,4.3,42.64,42.64,0,0,1,1.31,5.32c.17,1.58-.68,6.54-1.7,7.87a28.47,28.47,0,0,1-5.44,4.9c-1.76,1.15-7.82,1.64-9.86,1s-5.28-3.31-6.81-6.18c-.62-1.16-2.26-9.06,0-13.85"/></svg>
