<?xml version="1.0" encoding="utf-8"?>
<!-- Generator: Adobe Illustrator 23.0.1, SVG Export Plug-In . SVG Version: 6.00 Build 0)  -->
<svg version="1.1" id="Layer_1" xmlns="http://www.w3.org/2000/svg" xmlns:xlink="http://www.w3.org/1999/xlink" x="0px" y="0px"
	 viewBox="0 0 364.6 65.1" style="enable-background:new 0 0 364.6 65.1;" xml:space="preserve">
<style type="text/css">
	.st0{enable-background:new    ;}
	.st1{fill:#FF0B8B;}
</style>
<title>1Asset 49</title>
<g>
	<g id="Layer_6">
		<g class="st0">
			<path class="st1" d="M8.7,25c0.5,0.8,3.5-2.6,9.4-0.4c2.6,1.1,3.4,2.9,4.1,2.8c0.8-0.1,4.7-3.5,8.1-3.6c6.6-0.4,9.7,5.4,9.6,8.9
				c-0.1,3.3-0.3,6.7-0.4,9.9c0,2.5,0.3,6.6-1,7.1c-1.3,0.5-4.1,0.5-4.3-0.3c-0.6-2.3-0.6-4.7-0.6-6.8c0-3,0.1-5.9,0.3-8.9
				c0.1-2-0.5-3.7-2.8-3.7c-2.5,0-4.8,1.6-6,4.1c-1.5,3.5-0.8,5.7-0.8,9.5c-0.1,1.9,0.6,4.8-0.6,6.1c-0.5,0.6-4.4,0.6-4.7-0.2
				c-1.3-5.8,0.2-13.9-1.4-17.9c-0.6-1.8-7.2-2.9-8.5,1.9c-1.3,5.6,0,15.8-0.8,16.1c-1.6,0.6-5,0.8-5.4-0.2
				c-0.3-0.9,0.4-15.6,0.2-18.4c-0.1-2.3-0.8-6.7,0.5-6.8C5.4,23.9,7.5,23.5,8.7,25z"/>
		</g>
		<g class="st0">
			<path class="st1" d="M67,43.6c0,1.7,0.8,6-0.1,6c-3.6-0.2-5.4,0.8-5.3-1.8c0-0.5-2.6,1.8-6.9,1.8c-3.1,0-5.5-0.8-7.6-2.8
				c-2.5-2.8-3.2-6.7-2-10.2c1.5-3.3,4.5-5,7.1-5.5c2.8-0.7,7.2,0.3,8.1,1l0.2-0.8c0.6-4.4-8.2-2.6-9.3-3.4
				c-1.3-0.9-1.9-3.5-0.8-4.8c1.2-1.1,6.4-0.6,9.6-0.1c2.3,0.4,5.3,2.6,6.2,6.2C67.4,33.5,66.2,39.1,67,43.6z M59.7,37.6
				c-1.7-1.9-5.5-1.9-7.6-0.8c-2.6,1.5-1.8,5,0.6,6.2c2.6,1.4,6.1,0.7,7.5-1.9C61,39.7,60.4,38.6,59.7,37.6z"/>
		</g>
		<g class="st0">
			<path class="st1" d="M97.4,44.4c-0.3,4.7,0.2,5.2-2.1,5.2c-3.1,0-4.6,0.6-4.6-1.8c-6.8,4.2-15.4,0.8-18-6.5
				c-2.6-6.8,1.9-18.8,13.9-17.6c3.4,0.5,4.6,2.5,4.6,1.7c0.1-5.7,0-13.5,0-19.2c0.2-1.8,6.8-1.1,6.5,0.2c0.2,5.5-0.1,11.3-0.2,16.8
				C97.5,30.2,97.5,37.5,97.4,44.4z M91.1,34.2c-1.3-3.7-5.6-6-9.2-4c-6.3,3.6-4.3,12.5,1.8,13.4c1.9,0.2,3.6-0.1,5.1-1.1
				C91.4,40.8,92,37.3,91.1,34.2z"/>
		</g>
		<g class="st0">
			<path class="st1" d="M111.8,17c-1.7,1.7-4.2,1.8-6.4,0.7c-2.7-1.4-2.3-5.5-0.2-7.5c2.2-2.2,6.9-1.6,7.7,1.6
				C113.4,14.2,113.1,15.9,111.8,17z M111.8,24.6c0.6,0.9,0,6.9,0,10c-0.2,4.1-0.2,25.2-0.9,27.1c-0.2,0.5-5.3,0.6-5.4-0.2
				c-0.3-1.2-0.6-3.2-0.1-16.2c0.3-5.6-1.3-21.1,1-21.4C107.6,23.8,110.9,23.4,111.8,24.6z"/>
		</g>
		<g class="st0">
			<path class="st1" d="M128.5,44c5.3,0.3,6.4-4.3,8.1-4c1.5,0.2,2.6,1.5,2.7,2.3c0.4,3.2-6.4,7.4-10.7,7.2c-9.2,0-13-8.5-11.5-16.2
				c1-5.3,5.5-9.6,9.7-9.9c7.3-1,13.5,3.3,13.6,11.6c0.1,1.3-0.3,3.2-2,3c-4.4-0.7-9.3-0.3-13.8-0.2C121.5,37.2,122.9,43.4,128.5,44
				z M123.8,32.9c0.2,1.3,9.2,1,10,0.2c1.2-1.2-1.2-3.3-2.3-3.9C128.7,27.8,123,29.3,123.8,32.9z M128.9,18.9c-1.2,0-3.1,0-4.4,0
				c-0.2,0,2.4-6.7,4.6-8.8c0.5-0.5,1.3-0.9,2.1-0.9c1.2,0,2.8-0.1,3.9,0c0.9,0,1.3,0.4,0.9,1C135,11.7,130.6,18.9,128.9,18.9z"/>
		</g>
		<g class="st0">
			<path class="st1" d="M150.2,5.8c0.8,0,1.2,0.5,1,1.2c-0.8,3-1.6,6.1-2.8,9.2c-0.3,0.7-1.1,1.2-1.9,1.2h-3.4
				c-0.8,0-1.1-0.5-0.9-1.2c1-3,2-6.1,3.2-9.1c0.3-0.7,1-1.2,1.8-1.2C148.3,5.7,149.2,5.8,150.2,5.8z"/>
		</g>
		<g class="st0">
			<path class="st1" d="M165.5,26.5c-0.4,1.6-3,3.9-3.7,3.7c-1.8-0.7-3.2-1.9-4.8-0.8c-1.1,1.1-0.7,2.3,0,3c0.8,0.6,6.2,2.2,8.6,5.4
				c1.6,2.1,1.2,4.9,0.2,7.2c-2.3,4.9-9.2,5.5-13.2,3.2c-1.3-0.7-4.4-3-3-4.4c1.5-1.3,3-3,4.3-2c1.5,1.1,3.6,2.4,5.4,1.6
				c1.2-0.8,1.5-2.5-0.7-3.5c-2.7-1.7-6.8-3.2-8.1-6.2c-1.5-3.4-0.1-6.9,2.9-8.9c2.7-1.7,6.3-2,9.3-0.7
				C163.8,24.6,165.6,26,165.5,26.5z"/>
		</g>
		<g class="st0">
			<path class="st1" d="M208,26.9c0.8,0.7-2,4.1-3.4,3.9c-2.6-0.2-3.2-1.5-5.3-1.7c-5.2-0.5-10.5,7.3-5.8,12.7c2.7,3,7.1,2.6,9.9,0
				c0.9-0.9,1.9-2.3,3-2.4c0.9,0,1.8,2,2.5,2.9c0.9,1.7-0.2,2.3-0.9,3c-7.2,6.7-16,5.1-20.4-1.6c-4.3-6.7-1.5-17.8,7.5-20.1
				C199.8,22.3,204.8,23.4,208,26.9z"/>
		</g>
		<g class="st0">
			<path class="st1" d="M232.9,48c-15.8,7.8-27.3-14.4-12.4-23c3.1-1.8,6.7-1.9,9.8-1C241.1,27.4,242.6,42.1,232.9,48z M228.3,29.8
				c-9.1-1.4-10.6,9-6.1,12.2c2.2,1.7,4.7,2.2,7.1,1.1C235.8,39.9,233.7,30.8,228.3,29.8z"/>
		</g>
		<g class="st0">
			<path class="st1" d="M264.4,48c-15.8,7.8-27.3-14.4-12.4-23c3.1-1.8,6.7-1.9,9.8-1C272.6,27.4,274.2,42.1,264.4,48z M259.8,29.8
				c-9.1-1.4-10.6,9-6.1,12.2c2.2,1.7,4.7,2.2,7.1,1.1C267.3,39.9,265.2,30.8,259.8,29.8z"/>
		</g>
		<g class="st0">
			<path class="st1" d="M282.2,6.3c0.4,0.9,0.1,3.4,0,6.8c-0.2,5.5-0.2,14.7,0.1,16.4c0.3,3.7,10.9-6.5,12.4-7.3
				c1.1-0.9,3.5,0.6,4.1,2.7c0.2,1.1-1.6,2.6-2.7,3.6c-5.4,5-9.3,6.4-8.9,7.4c0.4,1.1,1.5,2.1,2.5,3.2c2.5,2.2,4.1,3.9,6.5,6.2
				c0.4,0.4,1.2,1,1.5,1.6c0.3,0.5,0.4,0.9,0.2,1.3c-0.4,0.5-1.9,1.5-3.5,1.8c-2.8,0.5-7.6-5.6-9.6-7.6c-1.1-1.3-2.6-2.5-2.7-1.7
				c-0.3,2,0,5.1,0.1,7.4c0.2,3-5.3,2.1-5.7,1.4c-0.6-1.1-0.3-5.7-0.2-7.8c0.1-9.9,0.1-19.3-0.1-29.2c-0.2-3.4-0.4-6,0.3-6.4
				C277.4,5.4,281.6,5.2,282.2,6.3z"/>
		</g>
		<g class="st0">
			<path class="st1" d="M311.7,15.6c-1,2.3-2.9,3.3-5.4,2.6c-5-1.2-3.9-9.2,1.6-9.2C311.1,9,313,12.1,311.7,15.6z M309.7,24.6
				c0.6,0.2,0.8,1.2,0.8,2.2c-0.2,7.2,0.6,19.8,0,21.8c-0.6,1.6-3.3,1.1-4.7,0.9c-1.8-0.3-1.5-1.6-1.5-3.2c0-1.4-0.2-8.1,0.2-15.4
				c0.1-1.9-0.8-6.7,1.5-6.7C307.2,24.4,308.6,24,309.7,24.6z"/>
		</g>
		<g class="st0">
			<path class="st1" d="M328.4,44c5.3,0.3,6.4-4.3,8.1-4c1.5,0.2,2.6,1.5,2.7,2.3c0.3,3.2-6.4,7.4-10.7,7.2c-9.2,0-13-8.5-11.5-16.2
				c1-5.3,5.5-9.6,9.7-9.9c7.3-1,13.5,3.3,13.6,11.6c0.1,1.3-0.3,3.2-2,3c-4.4-0.7-9.3-0.3-13.8-0.2C321.4,37.2,322.8,43.4,328.4,44
				z M323.7,32.9c0.2,1.3,9.2,1,10,0.2c1.2-1.2-1.2-3.3-2.3-3.9C328.6,27.8,322.9,29.3,323.7,32.9z"/>
		</g>
		<g class="st0">
			<path class="st1" d="M360.6,26.5c-0.4,1.6-3,3.9-3.7,3.7c-1.8-0.7-3.2-1.9-4.8-0.8c-1.1,1.1-0.7,2.3,0,3c0.8,0.6,6.2,2.2,8.6,5.4
				c1.6,2.1,1.2,4.9,0.2,7.2c-2.3,4.9-9.2,5.5-13.2,3.2c-1.3-0.7-4.4-3-3-4.4c1.5-1.3,3-3,4.3-2c1.5,1.1,3.6,2.4,5.4,1.6
				c1.2-0.8,1.5-2.5-0.7-3.5c-2.7-1.7-6.8-3.2-8.1-6.2c-1.5-3.4-0.1-6.9,2.9-8.9c2.7-1.7,6.3-2,9.3-0.7
				C358.9,24.6,360.7,26,360.6,26.5z"/>
		</g>
	</g>
</g>
</svg>
