<svg class="logo" xmlns="http://www.w3.org/2000/svg" viewBox="0 0 334.56 79.68"><defs><style>.cls-1{fill:#0b1749;}</style></defs><title>Asset 1</title><g id="Layer_2" data-name="Layer 2"><g id="Layer_2-2" data-name="Layer 2"><path class="cls-1" d="M4.41.17H18.62A4.41,4.41,0,0,1,22.27,2.1L38,25.28a4.41,4.41,0,0,0,7.3,0L61,2.11A4.39,4.39,0,0,1,64.62.17H78.83a4.4,4.4,0,0,1,4.4,4.4V75.19a4.4,4.4,0,0,1-4.4,4.4H62.28a4.4,4.4,0,0,1-4.41-4.4V65.33a4.41,4.41,0,0,0-8-2.48l-4.51,6.64a4.41,4.41,0,0,1-7.28,0L33.4,62.75a4.41,4.41,0,0,0-8,2.49v10a4.4,4.4,0,0,1-4.4,4.4H4.41A4.4,4.4,0,0,1,0,75.19V4.57A4.4,4.4,0,0,1,4.41.17Z"/><path class="cls-1" d="M96,.17h38a4.4,4.4,0,0,1,4.4,4.4v12A4.41,4.41,0,0,1,134,21H121.34a4.4,4.4,0,0,0-4.41,4.4h0a4.4,4.4,0,0,0,4.41,4.41H133.6a4.41,4.41,0,0,1,4.41,4.4v11a4.42,4.42,0,0,1-4.41,4.41H121.34a4.4,4.4,0,0,0-4.41,4.4v.36a4.4,4.4,0,0,0,4.41,4.4h13.45a4.42,4.42,0,0,1,4.41,4.41v12a4.41,4.41,0,0,1-4.41,4.4H96a4.4,4.4,0,0,1-4.4-4.4V4.57A4.4,4.4,0,0,1,96,.17Z"/><path class="cls-1" d="M150.75.17h17.62a4.4,4.4,0,0,1,4.4,4.4V54.35a4.41,4.41,0,0,0,4.41,4.4h13.1a4.41,4.41,0,0,1,4.4,4.41v12a4.4,4.4,0,0,1-4.4,4.4H150.75a4.4,4.4,0,0,1-4.41-4.4V4.57A4.4,4.4,0,0,1,150.75.17Z"/><path class="cls-1" d="M208.62,0h17.62a4.4,4.4,0,0,1,4.41,4.41V54.18a4.4,4.4,0,0,0,4.4,4.4h13.1A4.41,4.41,0,0,1,252.56,63V75a4.4,4.4,0,0,1-4.41,4.4H208.62a4.4,4.4,0,0,1-4.4-4.4V4.41A4.4,4.4,0,0,1,208.62,0Z"/><path class="cls-1" d="M254.94,39.87a38.68,38.68,0,0,1,3.13-15.47A39.77,39.77,0,0,1,279.28,3.18a39.8,39.8,0,0,1,30.94,0A39.77,39.77,0,0,1,331.43,24.4a38.68,38.68,0,0,1,3.13,15.47,38.72,38.72,0,0,1-3.13,15.47,39.79,39.79,0,0,1-21.21,21.21,39.8,39.8,0,0,1-30.94,0,39.79,39.79,0,0,1-21.21-21.21A38.72,38.72,0,0,1,254.94,39.87Zm23.89,0a15.4,15.4,0,0,0,1.25,6.2,16,16,0,0,0,8.47,8.47,16,16,0,0,0,12.4,0,16,16,0,0,0,8.47-8.47,16,16,0,0,0,0-12.4A16,16,0,0,0,306,28.61,16.26,16.26,0,0,0,301,25.19a16,16,0,0,0-12.4,0,16.26,16.26,0,0,0-5.06,3.42,16,16,0,0,0-3.41,5.06A15.37,15.37,0,0,0,278.83,39.87Z"/></g></g></svg>
