<svg class="proverb" xmlns="http://www.w3.org/2000/svg" viewBox="0 0 295.4 116.05"><title>1Asset 7</title><g id="Layer_2" data-name="Layer 2"><g id="Layer_6" data-name="Layer 6"><path d="M16.61,12.49,7.25,50.88H5.42L8.21,39.31.66,12.49H2.48L9.07,35.83l5.72-23.34Z" style="fill:#fff;stroke:#fff;stroke-miterlimit:10"/><path d="M25.93,39.15a7,7,0,0,1-2.81-.56,7,7,0,0,1-3.8-3.8A7,7,0,0,1,18.75,32V19.4a7,7,0,0,1,.57-2.81,7,7,0,0,1,3.8-3.8,7.21,7.21,0,0,1,5.62,0A7.13,7.13,0,0,1,31,14.31a7,7,0,0,1,1.53,2.28,7,7,0,0,1,.56,2.81V32a7,7,0,0,1-.56,2.81A7,7,0,0,1,31,37.07a7.13,7.13,0,0,1-2.27,1.52A7,7,0,0,1,25.93,39.15Zm0-25.16a5.22,5.22,0,0,0-2.12.43A5.36,5.36,0,0,0,21,17.28a5.25,5.25,0,0,0-.43,2.12V32A5.17,5.17,0,0,0,21,34.09a5.46,5.46,0,0,0,1.15,1.72A5.53,5.53,0,0,0,23.81,37,5.42,5.42,0,0,0,28,37a5.58,5.58,0,0,0,1.72-1.15,5.46,5.46,0,0,0,1.15-1.72A5.34,5.34,0,0,0,31.34,32V19.4a5.43,5.43,0,0,0-.43-2.12A5.34,5.34,0,0,0,28,14.42,5.17,5.17,0,0,0,25.93,14Z" style="fill:#fff;stroke:#fff;stroke-miterlimit:10"/><path d="M51.2,12.49v26.4H49.43v-2.2A7.81,7.81,0,0,1,47,38.49a6.89,6.89,0,0,1-3,.66,7,7,0,0,1-2.81-.56,7.13,7.13,0,0,1-2.27-1.52,7.37,7.37,0,0,1-1.53-2.28A7.12,7.12,0,0,1,36.85,32V12.49h1.77V32a5.47,5.47,0,0,0,1.58,3.83A5.53,5.53,0,0,0,41.91,37a5.42,5.42,0,0,0,4.23,0,5.53,5.53,0,0,0,1.71-1.15A5.3,5.3,0,0,0,49,34.09,5.17,5.17,0,0,0,49.43,32V12.49Z" style="fill:#fff;stroke:#fff;stroke-miterlimit:10"/><path d="M66,12.22V14H63.89a5,5,0,0,0-2.09.43,5.91,5.91,0,0,0-1.71,1.15,5.13,5.13,0,0,0-1.18,1.71,5.25,5.25,0,0,0-.43,2.12V38.89H56.71V14.26H55V12.49h3.53v2.2a7,7,0,0,1,5.25-2.47Z" style="fill:#fff;stroke:#fff;stroke-miterlimit:10"/><path d="M85.09,24.86c.78.39,1.58.81,2.38,1.26a11.83,11.83,0,0,1,2.17,1.52,8.07,8.07,0,0,1,1.58,1.9A4.73,4.73,0,0,1,91.83,32a7,7,0,0,1-.56,2.81,7,7,0,0,1-1.53,2.28,7.13,7.13,0,0,1-2.27,1.52,7.33,7.33,0,0,1-5.62,0,7.06,7.06,0,0,1-2.28-1.52,7.17,7.17,0,0,1-1.52-2.28A7,7,0,0,1,77.48,32h1.77a5.17,5.17,0,0,0,.43,2.11,5.3,5.3,0,0,0,1.15,1.72A5.53,5.53,0,0,0,82.54,37a5.42,5.42,0,0,0,4.23,0,5.7,5.7,0,0,0,1.72-1.15,5.46,5.46,0,0,0,1.15-1.72A5.34,5.34,0,0,0,90.07,32a3.18,3.18,0,0,0-.49-1.74,5.67,5.67,0,0,0-1.28-1.42,11.81,11.81,0,0,0-1.85-1.2c-.69-.38-1.42-.76-2.17-1.15s-1.63-.82-2.43-1.26a13,13,0,0,1-2.17-1.5,7.43,7.43,0,0,1-1.58-1.88,4.67,4.67,0,0,1-.62-2.43,7,7,0,0,1,.57-2.81,7.17,7.17,0,0,1,1.52-2.28,7.06,7.06,0,0,1,2.28-1.52,7.21,7.21,0,0,1,5.62,0,7.13,7.13,0,0,1,2.27,1.52,7,7,0,0,1,1.53,2.28,7,7,0,0,1,.56,2.81H90.07a5.43,5.43,0,0,0-.43-2.12,5.53,5.53,0,0,0-1.15-1.71,5.7,5.7,0,0,0-1.72-1.15,5.42,5.42,0,0,0-4.23,0,5.53,5.53,0,0,0-1.71,1.15,5.36,5.36,0,0,0-1.15,1.71,5.25,5.25,0,0,0-.43,2.12,3.25,3.25,0,0,0,.48,1.74A5.44,5.44,0,0,0,81,22.56a13.18,13.18,0,0,0,1.88,1.2C83.61,24.14,84.34,24.5,85.09,24.86Z" style="fill:#fff;stroke:#fff;stroke-miterlimit:10"/><path d="M119.35,12.49l-6,26.4h-2.62l-3.8-21.42-3.8,21.42h-2.68l-5.94-26.4h1.82l5.41,24,4.28-24h1.82l4.28,24,5.41-24Z" style="fill:#fff;stroke:#fff;stroke-miterlimit:10"/><path d="M131.77,24.22c-.32.1-.85.31-1.6.61s-1.57.62-2.44.94-1.72.64-2.54,1-1.47.56-1.93.7V32a5.17,5.17,0,0,0,.43,2.11,5.3,5.3,0,0,0,1.15,1.72A5.53,5.53,0,0,0,126.55,37a5.42,5.42,0,0,0,4.23,0,5.53,5.53,0,0,0,1.71-1.15A5.36,5.36,0,0,0,134.07,32h1.77a7.12,7.12,0,0,1-.56,2.81,7.37,7.37,0,0,1-1.53,2.28,7.13,7.13,0,0,1-2.27,1.52,7.33,7.33,0,0,1-5.62,0,7.06,7.06,0,0,1-2.28-1.52,7.37,7.37,0,0,1-1.53-2.28,7.12,7.12,0,0,1-.56-2.81V19.4a7.12,7.12,0,0,1,.56-2.81,7.37,7.37,0,0,1,1.53-2.28,7.06,7.06,0,0,1,2.28-1.52,7.21,7.21,0,0,1,5.62,0,7.13,7.13,0,0,1,2.27,1.52,7.37,7.37,0,0,1,1.53,2.28,7,7,0,0,1,.56,2.76v0Q135.84,22.72,131.77,24.22ZM128.67,14a5.22,5.22,0,0,0-2.12.43,5.53,5.53,0,0,0-1.71,1.15,5.36,5.36,0,0,0-1.15,1.71,5.25,5.25,0,0,0-.43,2.12v6.16q.8-.33,2-.78c.78-.3,1.57-.6,2.36-.88l2.16-.81,1.42-.53a7.58,7.58,0,0,0,1.93-1.13,2.49,2.49,0,0,0,1-2.08,5.17,5.17,0,0,0-.42-2.09,5.48,5.48,0,0,0-2.87-2.84A5.17,5.17,0,0,0,128.67,14Z" style="fill:#fff;stroke:#fff;stroke-miterlimit:10"/><path d="M149.87,24.22c-.32.1-.86.31-1.61.61s-1.56.62-2.43.94-1.73.64-2.55,1-1.46.56-1.93.7V32a5.34,5.34,0,0,0,.43,2.11,5.46,5.46,0,0,0,1.15,1.72A5.7,5.7,0,0,0,144.65,37a5.42,5.42,0,0,0,4.23,0,5.53,5.53,0,0,0,1.71-1.15,5.3,5.3,0,0,0,1.15-1.72,5.17,5.17,0,0,0,.43-2.11h1.77a7,7,0,0,1-.57,2.81,7.17,7.17,0,0,1-1.52,2.28,7.06,7.06,0,0,1-2.28,1.52,7.33,7.33,0,0,1-5.62,0,7.13,7.13,0,0,1-2.27-1.52,7,7,0,0,1-1.53-2.28,7.12,7.12,0,0,1-.56-2.81V19.4a7.12,7.12,0,0,1,.56-2.81,7,7,0,0,1,1.53-2.28A7.13,7.13,0,0,1,144,12.79a7.21,7.21,0,0,1,5.62,0,7.06,7.06,0,0,1,2.28,1.52,7.17,7.17,0,0,1,1.52,2.28,6.82,6.82,0,0,1,.57,2.76v0Q153.94,22.72,149.87,24.22ZM146.76,14a5.17,5.17,0,0,0-2.11.43,5.7,5.7,0,0,0-1.72,1.15,5.53,5.53,0,0,0-1.15,1.71,5.43,5.43,0,0,0-.43,2.12v6.16l2-.78c.78-.3,1.57-.6,2.35-.88l2.17-.81,1.42-.53a7.94,7.94,0,0,0,1.93-1.13,2.49,2.49,0,0,0,1-2.08,5,5,0,0,0-.43-2.09,5.42,5.42,0,0,0-2.86-2.84A5.22,5.22,0,0,0,146.76,14Z" style="fill:#fff;stroke:#fff;stroke-miterlimit:10"/><path d="M159.18,25.66V32a5.9,5.9,0,0,0,.38,2.11,5.34,5.34,0,0,0,1,1.72A4.92,4.92,0,0,0,162.07,37a4,4,0,0,0,1.82.43v1.76a5.66,5.66,0,0,1-2.51-.56,6.56,6.56,0,0,1-2.06-1.52,7.22,7.22,0,0,1-1.4-2.28,7.66,7.66,0,0,1-.5-2.81V5h1.76v7.49H165v1.77h-5.78Z" style="fill:#fff;stroke:#fff;stroke-miterlimit:10"/><path d="M190.29.5V38.89h-1.77v-2.2a7.81,7.81,0,0,1-2.41,1.8,7.23,7.23,0,0,1-5.81.1A7.13,7.13,0,0,1,175.94,32V19.4a7.12,7.12,0,0,1,.56-2.81,7.07,7.07,0,0,1,3.8-3.8,7,7,0,0,1,2.81-.57,7.08,7.08,0,0,1,5.41,2.47V.5Zm-7.18,36.89a5.22,5.22,0,0,0,2.12-.43,5.53,5.53,0,0,0,1.71-1.15,5.3,5.3,0,0,0,1.15-1.72,5.17,5.17,0,0,0,.43-2.11V19.4a5.25,5.25,0,0,0-.43-2.12,5.36,5.36,0,0,0-1.15-1.71,5.53,5.53,0,0,0-1.71-1.15,5.42,5.42,0,0,0-4.23,0,5.53,5.53,0,0,0-1.71,1.15,5.31,5.31,0,0,0-1.58,3.83V32a5.36,5.36,0,0,0,1.58,3.83A5.53,5.53,0,0,0,181,37,5.17,5.17,0,0,0,183.11,37.39Z" style="fill:#fff;stroke:#fff;stroke-miterlimit:10"/><path d="M204.58,24.22c-.32.1-.85.31-1.6.61s-1.57.62-2.44.94-1.72.64-2.54,1-1.47.56-1.93.7V32a5.17,5.17,0,0,0,.43,2.11,5.3,5.3,0,0,0,1.15,1.72A5.53,5.53,0,0,0,199.36,37a5.42,5.42,0,0,0,4.23,0,5.53,5.53,0,0,0,1.71-1.15A5.36,5.36,0,0,0,206.88,32h1.77a7.12,7.12,0,0,1-.56,2.81,7.07,7.07,0,0,1-3.8,3.8,7.33,7.33,0,0,1-5.62,0,7.06,7.06,0,0,1-2.28-1.52,7.17,7.17,0,0,1-1.52-2.28A7,7,0,0,1,194.3,32V19.4a7,7,0,0,1,.57-2.81,7.17,7.17,0,0,1,1.52-2.28,7.06,7.06,0,0,1,2.28-1.52,7.21,7.21,0,0,1,5.62,0,7.07,7.07,0,0,1,3.8,3.8,7,7,0,0,1,.56,2.76v0Q208.65,22.72,204.58,24.22ZM201.48,14a5.22,5.22,0,0,0-2.12.43,5.53,5.53,0,0,0-1.71,1.15,5.36,5.36,0,0,0-1.15,1.71,5.25,5.25,0,0,0-.43,2.12v6.16q.8-.33,2-.78c.78-.3,1.57-.6,2.36-.88l2.16-.81,1.42-.53a7.58,7.58,0,0,0,1.93-1.13,2.49,2.49,0,0,0,1-2.08,5.17,5.17,0,0,0-.42-2.09,5.48,5.48,0,0,0-2.87-2.84A5.17,5.17,0,0,0,201.48,14Z" style="fill:#fff;stroke:#fff;stroke-miterlimit:10"/><path d="M212.13,38.89V.5h1.77V38.89Z" style="fill:#fff;stroke:#fff;stroke-miterlimit:10"/><path d="M219.47,12.06h1.76V38.51h-1.76V13.88H217.7V12.06Zm.42-6.1a1.27,1.27,0,0,1-1.33-1.34,1.28,1.28,0,0,1,1.33-1.34,1.34,1.34,0,0,1,.94.38,1.25,1.25,0,0,1,.4,1,1.25,1.25,0,0,1-.4,1A1.33,1.33,0,0,1,219.89,6Z" style="fill:#fff;stroke:#fff;stroke-miterlimit:10"/><path d="M240.88,12.49l-7,26.4H231.4l-7-26.4h1.82l6.37,24.26L239,12.49Z" style="fill:#fff;stroke:#fff;stroke-miterlimit:10"/><path d="M253.3,24.22c-.32.1-.86.31-1.61.61s-1.56.62-2.43.94-1.72.64-2.55,1-1.46.56-1.92.7V32a5.47,5.47,0,0,0,1.58,3.83A5.53,5.53,0,0,0,248.08,37a5.42,5.42,0,0,0,4.23,0A5.53,5.53,0,0,0,254,35.81a5.3,5.3,0,0,0,1.15-1.72A5.17,5.17,0,0,0,255.6,32h1.77a7.12,7.12,0,0,1-.56,2.81,7.37,7.37,0,0,1-1.53,2.28A7.06,7.06,0,0,1,253,38.59a7.33,7.33,0,0,1-5.62,0,7.13,7.13,0,0,1-2.27-1.52,7.37,7.37,0,0,1-1.53-2.28A7.12,7.12,0,0,1,243,32V19.4a7.12,7.12,0,0,1,.56-2.81,7.37,7.37,0,0,1,1.53-2.28,7.13,7.13,0,0,1,2.27-1.52,7.25,7.25,0,0,1,7.9,1.52,7.37,7.37,0,0,1,1.53,2.28,7,7,0,0,1,.56,2.76v0Q257.37,22.72,253.3,24.22ZM250.19,14a5.21,5.21,0,0,0-2.11.43,5.53,5.53,0,0,0-1.71,1.15,5.42,5.42,0,0,0-1.58,3.83v6.16q.79-.33,2-.78c.78-.3,1.57-.6,2.35-.88l2.17-.81,1.42-.53a7.75,7.75,0,0,0,1.93-1.13,2.49,2.49,0,0,0,1-2.08,5,5,0,0,0-.43-2.09,5.42,5.42,0,0,0-2.86-2.84A5.22,5.22,0,0,0,250.19,14Z" style="fill:#fff;stroke:#fff;stroke-miterlimit:10"/><path d="M270.81,12.22V14h-2.09a5,5,0,0,0-2.09.43,6,6,0,0,0-1.71,1.15,5.29,5.29,0,0,0-1.61,3.83V38.89h-1.77V14.26h-1.76V12.49h3.53v2.2a7,7,0,0,1,5.25-2.47Z" style="fill:#fff;stroke:#fff;stroke-miterlimit:10"/><path d="M288.9,12.49l-9.37,38.39h-1.82l2.79-11.57L273,12.49h1.82l6.58,23.34,5.73-23.34Z" style="fill:#fff;stroke:#fff;stroke-miterlimit:10"/><path d="M294.87,38.24a6.14,6.14,0,0,1-.24,1.34,8.13,8.13,0,0,1-.7,1.64A9.21,9.21,0,0,1,292.65,43l-1-1a6.17,6.17,0,0,0,1.13-1.47,6.4,6.4,0,0,0,.53-1.37.35.35,0,0,0-.16,0,.35.35,0,0,1-.16,0,1.8,1.8,0,0,1-1.36-.59,1.93,1.93,0,0,1-.57-1.39,1.87,1.87,0,0,1,.57-1.34A1.8,1.8,0,0,1,293,35.3a1.84,1.84,0,0,1,1.37.59,1.9,1.9,0,0,1,.56,1.34v.16C294.9,37.57,294.89,37.85,294.87,38.24Z" style="fill:#fff;stroke:#fff;stroke-miterlimit:10"/><path d="M56.45,101.63a5.42,5.42,0,0,0,3.82-1.58,5.36,5.36,0,0,0,1.15-1.71,5.21,5.21,0,0,0,.43-2.11h1.77A7.19,7.19,0,0,1,63.06,99a7.16,7.16,0,0,1-3.8,3.8,7.36,7.36,0,0,1-5.63,0,7.16,7.16,0,0,1-3.8-3.8,7.19,7.19,0,0,1-.56-2.81V83.64a7.19,7.19,0,0,1,.56-2.81,7.16,7.16,0,0,1,3.8-3.8,7.36,7.36,0,0,1,5.63,0,7.16,7.16,0,0,1,3.8,3.8,7.19,7.19,0,0,1,.56,2.81H61.85a5.17,5.17,0,0,0-.43-2.11,5.36,5.36,0,0,0-1.15-1.71,5.42,5.42,0,0,0-7.65,0,5.36,5.36,0,0,0-1.15,1.71A5.17,5.17,0,0,0,51,83.64V96.23a5.21,5.21,0,0,0,.43,2.11,5.36,5.36,0,0,0,1.15,1.71,5.42,5.42,0,0,0,3.83,1.58Z" style="fill:#fff;stroke:#fff;stroke-miterlimit:10"/><path d="M74.54,103.4a7.12,7.12,0,0,1-2.81-.56,7.32,7.32,0,0,1-2.27-1.53,7.11,7.11,0,0,1-2.09-5.08V83.64a7.11,7.11,0,0,1,2.09-5.08A7.32,7.32,0,0,1,71.73,77a7.33,7.33,0,0,1,5.62,0,7.37,7.37,0,0,1,2.28,1.53,7.13,7.13,0,0,1,1.52,2.27,7,7,0,0,1,.56,2.81V96.23A7,7,0,0,1,81.15,99a7.13,7.13,0,0,1-1.52,2.27,7.37,7.37,0,0,1-2.28,1.53A7.12,7.12,0,0,1,74.54,103.4Zm0-25.16a5.17,5.17,0,0,0-2.11.43,5.35,5.35,0,0,0-1.72,1.15,5.53,5.53,0,0,0-1.15,1.71,5.34,5.34,0,0,0-.43,2.11V96.23a5.38,5.38,0,0,0,.43,2.11,5.53,5.53,0,0,0,1.15,1.71,5.35,5.35,0,0,0,1.72,1.15,5.42,5.42,0,0,0,5.94-1.15,5.53,5.53,0,0,0,1.15-1.71A5.21,5.21,0,0,0,80,96.23V83.64a5.17,5.17,0,0,0-.43-2.11,5.53,5.53,0,0,0-1.15-1.71,5.42,5.42,0,0,0-3.83-1.58Z" style="fill:#fff;stroke:#fff;stroke-miterlimit:10"/><path d="M105.22,76.47A7.16,7.16,0,0,1,108,77a7.32,7.32,0,0,1,2.27,1.53,7.11,7.11,0,0,1,2.09,5.08v19.49h-1.76V83.64a5.34,5.34,0,0,0-.43-2.11,5.53,5.53,0,0,0-1.15-1.71,5.35,5.35,0,0,0-1.72-1.15,5.17,5.17,0,0,0-2.11-.43,5,5,0,0,0-2.09.43,5.66,5.66,0,0,0-1.71,1.15,5.29,5.29,0,0,0-1.61,3.82v19.49H98V83.64a5.33,5.33,0,0,0-.42-2.11,5.39,5.39,0,0,0-1.16-1.71,5.42,5.42,0,0,0-7.65,0,5.36,5.36,0,0,0-1.15,1.71,5.17,5.17,0,0,0-.43,2.11v19.49H85.46V76.74h1.77v2.19a7.15,7.15,0,0,1,2.41-1.82,7.23,7.23,0,0,1,9.31,3,7.23,7.23,0,0,1,2.57-2.67A6.94,6.94,0,0,1,105.22,76.47Z" style="fill:#fff;stroke:#fff;stroke-miterlimit:10"/><path d="M118,76.31h1.77v26.45H118V78.13h-1.77V76.31Zm.43-6.1a1.33,1.33,0,0,1-1-.38,1.3,1.3,0,0,1-.37-1,1.27,1.27,0,0,1,1.34-1.34,1.35,1.35,0,0,1,.94.37,1.3,1.3,0,0,1,.4,1,1.28,1.28,0,0,1-.4,1A1.36,1.36,0,0,1,118.39,70.21Z" style="fill:#fff;stroke:#fff;stroke-miterlimit:10"/><path d="M131.72,76.47a7.16,7.16,0,0,1,2.81.56,7.32,7.32,0,0,1,2.27,1.53,7.11,7.11,0,0,1,2.09,5.08v19.49h-1.77V83.64a5.33,5.33,0,0,0-.42-2.11,5.53,5.53,0,0,0-1.15-1.71,5.35,5.35,0,0,0-1.72-1.15,5.42,5.42,0,0,0-5.94,1.15,5.36,5.36,0,0,0-1.15,1.71,5.17,5.17,0,0,0-.43,2.11v19.49h-1.77V76.74h1.77v2.19a7.15,7.15,0,0,1,2.41-1.82A7.06,7.06,0,0,1,131.72,76.47Z" style="fill:#fff;stroke:#fff;stroke-miterlimit:10"/><path d="M157,76.74v31.64a7.16,7.16,0,0,1-.56,2.81,7.32,7.32,0,0,1-1.53,2.27,7.2,7.2,0,0,1-10.17,0,7.11,7.11,0,0,1-2.09-5.08h1.77a5.2,5.2,0,0,0,.42,2.09,5.88,5.88,0,0,0,1.16,1.71,5.28,5.28,0,0,0,1.71,1.18,5.42,5.42,0,0,0,4.23,0,5.28,5.28,0,0,0,1.71-1.18,5.85,5.85,0,0,0,1.15-1.71,5,5,0,0,0,.43-2.09v-7.44a7.78,7.78,0,0,1-2.41,1.79,6.79,6.79,0,0,1-3,.67,7.16,7.16,0,0,1-2.81-.56,7.32,7.32,0,0,1-2.27-1.53,7.11,7.11,0,0,1-2.09-5.08V83.64a7.11,7.11,0,0,1,2.09-5.08A7.32,7.32,0,0,1,147,77a7.16,7.16,0,0,1,2.81-.56,7.06,7.06,0,0,1,3,.64,7.15,7.15,0,0,1,2.41,1.82V76.74Zm-7.18,24.89a5.42,5.42,0,0,0,3.83-1.58,5.36,5.36,0,0,0,1.15-1.71,5.21,5.21,0,0,0,.43-2.11V83.64a5.17,5.17,0,0,0-.43-2.11,5.36,5.36,0,0,0-1.15-1.71,5.42,5.42,0,0,0-7.65,0,5.39,5.39,0,0,0-1.16,1.71,5.33,5.33,0,0,0-.42,2.11V96.23a5.31,5.31,0,0,0,1.58,3.82,5.42,5.42,0,0,0,3.82,1.58Z" style="fill:#fff;stroke:#fff;stroke-miterlimit:10"/><path d="M176.64,89.1c.78.4,1.57.82,2.38,1.26a12.77,12.77,0,0,1,2.17,1.53,8.11,8.11,0,0,1,1.58,1.9,4.73,4.73,0,0,1,.61,2.44,7.11,7.11,0,0,1-2.09,5.08,7.32,7.32,0,0,1-2.27,1.53,7.33,7.33,0,0,1-5.62,0,7.25,7.25,0,0,1-2.28-1.53A7.13,7.13,0,0,1,169.6,99a7,7,0,0,1-.57-2.81h1.77a5.21,5.21,0,0,0,.43,2.11,5.36,5.36,0,0,0,1.15,1.71,5.42,5.42,0,0,0,5.94,1.15,5.35,5.35,0,0,0,1.72-1.15,5.53,5.53,0,0,0,1.15-1.71,5.37,5.37,0,0,0,.42-2.11,3.2,3.2,0,0,0-.48-1.74,5.67,5.67,0,0,0-1.28-1.42A12.59,12.59,0,0,0,178,91.86l-2.17-1.15q-1.23-.58-2.43-1.26a11.9,11.9,0,0,1-2.17-1.5,7.38,7.38,0,0,1-1.58-1.87,4.73,4.73,0,0,1-.62-2.44,7,7,0,0,1,.57-2.81,7.13,7.13,0,0,1,1.52-2.27A7.25,7.25,0,0,1,173.4,77,7.33,7.33,0,0,1,179,77a7.32,7.32,0,0,1,2.27,1.53,7.11,7.11,0,0,1,2.09,5.08h-1.77a5.33,5.33,0,0,0-.42-2.11A5.53,5.53,0,0,0,180,79.82a5.35,5.35,0,0,0-1.72-1.15,5.42,5.42,0,0,0-5.94,1.15,5.36,5.36,0,0,0-1.15,1.71,5.17,5.17,0,0,0-.43,2.11,3.2,3.2,0,0,0,.48,1.74,5.44,5.44,0,0,0,1.31,1.42A14.15,14.15,0,0,0,174.47,88C175.16,88.38,175.89,88.75,176.64,89.1Z" style="fill:#fff;stroke:#fff;stroke-miterlimit:10"/><path d="M194.3,103.4a7.16,7.16,0,0,1-2.81-.56,7.32,7.32,0,0,1-2.27-1.53,7.11,7.11,0,0,1-2.09-5.08V83.64a7.11,7.11,0,0,1,2.09-5.08A7.32,7.32,0,0,1,191.49,77a7.33,7.33,0,0,1,5.62,0,7.12,7.12,0,0,1,4.37,6.61V96.23a7.19,7.19,0,0,1-.56,2.81,7.13,7.13,0,0,1-3.81,3.8A7.12,7.12,0,0,1,194.3,103.4Zm0-25.16a5.17,5.17,0,0,0-2.11.43,5.35,5.35,0,0,0-1.72,1.15,5.53,5.53,0,0,0-1.15,1.71,5.33,5.33,0,0,0-.42,2.11V96.23a5.37,5.37,0,0,0,.42,2.11,5.53,5.53,0,0,0,1.15,1.71,5.35,5.35,0,0,0,1.72,1.15,5.42,5.42,0,0,0,5.94-1.15,5.36,5.36,0,0,0,1.15-1.71,5.21,5.21,0,0,0,.43-2.11V83.64a5.17,5.17,0,0,0-.43-2.11,5.36,5.36,0,0,0-1.15-1.71,5.42,5.42,0,0,0-3.83-1.58Z" style="fill:#fff;stroke:#fff;stroke-miterlimit:10"/><path d="M212.4,103.4a7.12,7.12,0,0,1-2.81-.56,7.37,7.37,0,0,1-2.28-1.53A7.13,7.13,0,0,1,205.79,99a7,7,0,0,1-.57-2.81V83.64a7,7,0,0,1,.57-2.81,7.13,7.13,0,0,1,1.52-2.27A7.37,7.37,0,0,1,209.59,77a7.33,7.33,0,0,1,5.62,0,7.32,7.32,0,0,1,2.27,1.53,7.11,7.11,0,0,1,2.09,5.08V96.23a7.11,7.11,0,0,1-2.09,5.08,7.32,7.32,0,0,1-2.27,1.53A7.16,7.16,0,0,1,212.4,103.4Zm0-25.16a5.42,5.42,0,0,0-3.83,1.58,5.53,5.53,0,0,0-1.15,1.71,5.17,5.17,0,0,0-.43,2.11V96.23a5.21,5.21,0,0,0,.43,2.11,5.53,5.53,0,0,0,1.15,1.71,5.44,5.44,0,0,0,7.66,0,5.53,5.53,0,0,0,1.15-1.71,5.38,5.38,0,0,0,.43-2.11V83.64a5.34,5.34,0,0,0-.43-2.11,5.53,5.53,0,0,0-1.15-1.71,5.25,5.25,0,0,0-1.72-1.15A5.17,5.17,0,0,0,212.4,78.24Z" style="fill:#fff;stroke:#fff;stroke-miterlimit:10"/><path d="M230.49,76.47a7.12,7.12,0,0,1,2.81.56,7.12,7.12,0,0,1,4.37,6.61v19.49H235.9V83.64a5.17,5.17,0,0,0-.43-2.11,5.36,5.36,0,0,0-1.15-1.71,5.41,5.41,0,0,0-9.23,3.82v19.49h-1.77V76.74h1.77v2.19a7.05,7.05,0,0,1,2.41-1.82A7,7,0,0,1,230.49,76.47Z" style="fill:#fff;stroke:#fff;stroke-miterlimit:10"/><path d="M246.85,102.86a1.87,1.87,0,0,1-2.73,0,2,2,0,0,1-.56-1.39,1.92,1.92,0,0,1,.56-1.34,1.87,1.87,0,0,1,2.73,0,1.92,1.92,0,0,1,.56,1.34A2,2,0,0,1,246.85,102.86Zm-.46-36.29h-1.81V93.44h1.81Z" style="fill:#fff;stroke:#fff;stroke-miterlimit:10"/></g></g></svg>